<svg width="495" height="251" viewBox="0 0 495 251" fill="none" xmlns="http://www.w3.org/2000/svg">
<path d="M71.5258 37.4339L108.092 73.1305L122.255 59.7144L122.28 59.6884C124.562 57.3203 124.825 57.048 126.537 56.461L92.7354 21.7687C81.0666 9.79227 61.8585 9.6673 50.0348 21.4909L21.0788 50.4468C9.41568 62.1099 9.35557 81.0009 20.9442 92.7379L104.282 177.143L71.5258 211.234L37.1336 175.418C29.2973 192.473 27.2998 195.085 15.9295 193.088L50.0177 227.986C61.8059 240.054 81.2238 240.033 92.9854 227.939L121.693 198.419C133.156 186.632 132.995 167.813 121.332 156.223L36.0957 71.5255L71.5258 37.4339Z" fill="#6087FF"/>
<path d="M37.2796 168.721C34.0769 173.376 30.5501 179.568 27.697 184.853C24.7665 190.281 17.4846 191.678 12.8938 187.557C8.47446 183.591 8.84254 176.546 13.5768 172.962C18.3892 169.318 24.1491 164.826 28.481 161.039C39.9526 151.011 55.8911 133.273 55.8911 133.273L62.3738 139.727C62.3738 139.727 45.7672 156.384 37.2796 168.721Z" fill="#6087FF"/>
<path d="M77.8405 108.183L127.587 59.0895C128.472 58.3655 129.641 59.543 128.911 60.4225L84.2011 114.3L77.8405 108.183Z" fill="#6087FF"/>
<path d="M444.739 97.8799L429.57 108.619C428.199 109.623 426.491 107.905 427.504 106.54L438.718 91.4278L444.739 97.8799Z" fill="#6087FF"/>
<path d="M142.476 139.824H156.588C156.876 144.048 160.044 147.792 166.476 147.792C172.236 147.792 176.076 145.104 176.172 140.784C176.268 137.808 174.828 135.216 168.204 133.296L160.236 131.088C145.644 126.48 143.148 118.128 143.148 112.08C143.148 100.272 153.228 92.304 165.9 92.304C178.668 92.304 188.268 99.888 188.268 112.56H174.252C174.252 108.048 171.372 105.072 165.708 105.072C160.812 105.072 157.164 107.76 157.164 111.696C157.164 113.424 157.74 116.592 164.268 118.416L172.14 120.912C188.172 125.52 190.572 134.64 190.284 140.88C189.996 153.936 178.284 160.272 166.476 160.272C152.172 160.272 142.476 151.728 142.476 139.824Z" fill="#E5DED3"/>
<path d="M213.05 114.384V159.216H199.802V114.384H213.05ZM198.074 97.776C198.074 93.36 201.914 90 206.426 90C210.938 90 214.586 93.264 214.586 97.776C214.586 102.096 211.034 105.648 206.426 105.648C201.914 105.648 198.074 102.096 198.074 97.776Z" fill="#E5DED3"/>
<path d="M238.646 135.504V159.216H225.302V114.384H238.646V120.912C241.046 116.4 246.23 113.424 251.606 113.424C261.686 113.424 268.022 119.664 268.022 132.432V159.216H254.678V135.312C254.678 129.264 251.414 126.384 246.902 126.384C242.198 126.384 238.646 128.688 238.646 135.504Z" fill="#E5DED3"/>
<path d="M309.528 90V102.768H304.632C300.024 102.768 297.816 105.936 297.816 111.312V114.384H306.84V124.944H297.816V159.216H284.376V124.944H275.928V114.384H284.376V111.312C284.376 97.488 291.672 90 304.632 90H309.528Z" fill="#E5DED3"/>
<path d="M335.002 146.928C340.666 146.928 345.178 142.896 345.178 136.656C345.178 130.512 340.666 126.48 335.002 126.48C329.53 126.48 324.922 130.512 324.922 136.656C324.922 142.896 329.53 146.928 335.002 146.928ZM335.002 159.984C322.234 159.984 311.77 150.768 311.77 136.656C311.77 122.448 322.234 113.424 335.002 113.424C347.674 113.424 358.33 122.448 358.33 136.656C358.33 150.768 347.674 159.984 335.002 159.984Z" fill="#E5DED3"/>
<path d="M381.24 135.504V159.216H367.896V114.384H381.24V120.912C383.64 116.4 388.824 113.424 394.2 113.424C404.28 113.424 410.616 119.664 410.616 132.432V159.216H397.272V135.312C397.272 129.264 394.008 126.384 389.496 126.384C384.792 126.384 381.24 128.688 381.24 135.504Z" fill="#E5DED3"/>
<path d="M422.458 114.384H435.61V159.216H422.458V114.384Z" fill="#E5DED3"/>
<path d="M481.08 159.216V154.128C478.296 158.352 471.384 160.08 468.024 160.08C456.6 160.08 445.176 151.056 445.176 136.752C445.176 122.448 456.6 113.424 468.024 113.424C471 113.424 477.432 114.48 481.08 119.376V114.384H494.328V159.216H481.08ZM459 136.752C459 143.184 464.568 147.408 470.232 147.408C475.704 147.408 481.08 143.472 481.08 136.752C481.08 130.128 475.704 126.096 470.232 126.096C464.568 126.096 459 130.32 459 136.752Z" fill="#E5DED3"/>
</svg>
